<svg width="192" height="192" viewBox="0 0 192 192" fill="none" xmlns="http://www.w3.org/2000/svg">
<rect width="192" height="192" rx="10" fill="#FF8C00"/>
<rect x="22" y="23" width="146" height="120" fill="#00B2FF"/>
<path d="M184 24.6V130.2C184 134.868 182.146 139.344 178.845 142.645C175.544 145.946 171.068 147.8 166.4 147.8H43.2L8 183V24.6C8 19.9322 9.85428 15.4556 13.1549 12.1549C16.4556 8.85428 20.9322 7 25.6 7H166.4C171.068 7 175.544 8.85428 178.845 12.1549C182.146 15.4556 184 19.9322 184 24.6ZM166.4 24.6H25.6V140.76L36.16 130.2H166.4V24.6Z" fill="black"/>
<rect x="53" y="35" width="39" height="39" fill="white"/>
<rect x="100" y="35" width="39" height="39" fill="white"/>
<rect x="53" y="82" width="39" height="39" fill="white"/>
<rect x="100" y="82" width="39" height="39" fill="white"/>
</svg>
